<svg xmlns="http://www.w3.org/2000/svg" viewBox="0 0 64 64" width="64" height="64">
  <defs>
    <radialGradient id="b" cx="35%" cy="30%" r="75%">
      <stop offset="0" stop-color="#f87171"/><stop offset="55%" stop-color="#e11d48"/><stop offset="1" stop-color="#7f1027"/>
    </radialGradient>
    <linearGradient id="g" x1="0" y1="0" x2="1" y2="1">
      <stop offset="0" stop-color="#0b1220"/><stop offset="1" stop-color="#05080f"/>
    </linearGradient>
    <linearGradient id="w" x1="0" y1="0" x2="1" y2="0">
      <stop offset="0" stop-color="#b9884b"/><stop offset=".5" stop-color="#e6bc7a"/><stop offset="1" stop-color="#ad7c42"/>
    </linearGradient>
  </defs>
  <rect width="64" height="64" rx="14" fill="url(#g)"/>
  <circle cx="22" cy="18" r="20" fill="#10b981" opacity=".12"/>
  <g transform="rotate(28 30 30)">
    <rect x="26.9" y="3.5" width="6.2" height="12.5" rx="3.1" fill="#4a301e"/>
    <path d="M28.2 8.2h3.6M28.2 11.2h3.6" stroke="#70532e" stroke-width="1.1" stroke-linecap="round"/>
    <rect x="23.6" y="13.6" width="12.8" height="35" rx="5.4" fill="url(#w)"/>
  </g>
  <circle cx="41.5" cy="43" r="12.4" fill="url(#b)"/>
  <path d="M44.6 31.6c-4.4 3.6-4.4 19.2 0 22.8" fill="none" stroke="#fcf7ec" stroke-width="1.3" stroke-linecap="round"/>
  <g stroke="#fcf7ec" stroke-width="1" stroke-linecap="round" opacity=".92">
    <path d="M40.6 35.4l3-1M40 39.4l3.2-.5M39.8 43h3.2M40 46.6l3.2.5M40.6 50.6l3 1"/>
  </g>
</svg>
